<?xml version="1.0" encoding="UTF-8" standalone="no"?>
<!-- Created with Inkscape (http://www.inkscape.org/) -->

<svg
   xmlns:dc="http://purl.org/dc/elements/1.1/"
   xmlns:cc="http://creativecommons.org/ns#"
   xmlns:rdf="http://www.w3.org/1999/02/22-rdf-syntax-ns#"
   xmlns:svg="http://www.w3.org/2000/svg"
   xmlns="http://www.w3.org/2000/svg"
   xmlns:sodipodi="http://sodipodi.sourceforge.net/DTD/sodipodi-0.dtd"
   xmlns:inkscape="http://www.inkscape.org/namespaces/inkscape"
   width="200mm"
   height="200mm"
   viewBox="0 0 200 200"
   version="1.1"
   id="svg8"
   inkscape:version="0.92.2 (5c3e80d, 2017-08-06)"
   sodipodi:docname="galatea.svg">
  <defs
     id="defs2" />
  <sodipodi:namedview
     id="base"
     pagecolor="#ffffff"
     bordercolor="#666666"
     borderopacity="1.0"
     inkscape:pageopacity="0.0"
     inkscape:pageshadow="2"
     inkscape:zoom="0.7"
     inkscape:cx="513.07042"
     inkscape:cy="310.50717"
     inkscape:document-units="mm"
     inkscape:current-layer="layer1"
     showgrid="false"
     inkscape:pagecheckerboard="true"
     inkscape:window-width="1920"
     inkscape:window-height="1017"
     inkscape:window-x="-4"
     inkscape:window-y="-4"
     inkscape:window-maximized="1" />
  <metadata
     id="metadata5">
    <rdf:RDF>
      <cc:Work
         rdf:about="">
        <dc:format>image/svg+xml</dc:format>
        <dc:type
           rdf:resource="http://purl.org/dc/dcmitype/StillImage" />
        <dc:title></dc:title>
      </cc:Work>
    </rdf:RDF>
  </metadata>
  <g
     inkscape:label="Layer 1"
     inkscape:groupmode="layer"
     id="layer1"
     transform="translate(0,-97)">
    <path
       style="opacity:1;fill:#ffd457;fill-opacity:1;stroke:none;stroke-width:1.26499999;stroke-linecap:butt;stroke-linejoin:miter;stroke-miterlimit:4;stroke-dasharray:none;stroke-opacity:1"
       d="m 108.99592,107.23053 a 88.257445,88.257445 0 0 0 -88.257652,88.25766 88.257445,88.257445 0 0 0 88.257652,88.25715 88.257445,88.257445 0 0 0 88.25714,-88.25715 88.257445,88.257445 0 0 0 -5.43067,-30.16043 h -17.94981 a 71.626486,71.626486 0 0 1 6.74997,30.16043 71.626486,71.626486 0 0 1 -0.0294,0.59221 H 37.390481 a 71.626486,71.626486 0 0 1 -0.02119,-0.59221 71.626486,71.626486 0 0 1 71.626629,-71.62663 71.626486,71.626486 0 0 1 25.35142,4.72632 l 10.2092,-13.7573 a 88.257445,88.257445 0 0 0 -35.56062,-7.60005 z"
       id="path815"
       inkscape:connector-curvature="0" />
    <rect
       style="opacity:1;fill:#ffd457;fill-opacity:1;stroke:none;stroke-width:1.39808488;stroke-linecap:butt;stroke-linejoin:miter;stroke-miterlimit:4;stroke-dasharray:none;stroke-opacity:1"
       id="rect832"
       width="54.854118"
       height="15.433715"
       x="133.7439"
       y="165.32893" />
    <path
       style="opacity:1;fill:#ffd457;fill-opacity:1;stroke:none;stroke-width:1.26499999;stroke-linecap:butt;stroke-linejoin:miter;stroke-miterlimit:4;stroke-dasharray:none;stroke-opacity:1"
       d="m 30.918525,204.01776 a 29.104166,29.104166 0 0 0 -29.1041655,29.10416 29.104166,29.104166 0 0 0 29.1041655,29.10417 29.104166,29.104166 0 0 0 1.066085,-0.0377 H 59.483706 V 244.5481 h -1.80299 a 29.104166,29.104166 0 0 0 2.341975,-11.42618 29.104166,29.104166 0 0 0 -29.104166,-29.10416 z m 1.228349,6.23682 A 23.34003,23.34003 0 0 1 55.48705,233.59425 23.34003,23.34003 0 0 1 32.146874,256.93442 23.34003,23.34003 0 0 1 8.8066973,233.59425 23.34003,23.34003 0 0 1 32.146874,210.25458 Z"
       id="path834"
       inkscape:connector-curvature="0" />
  </g>
</svg>
